#N canvas 0 23 625 531 12;
#X obj 17 91 inlet;
#X obj 17 114 sel 0;
#X msg 17 137 stop;
#X obj 73 164 moses;
#X obj 73 189 t b b;
#X obj 140 217 t b;
#X text 403 24 This is basically pd_adsr.pd;
#X msg 105 296 0;
#X obj 140 273 f \$1;
#X obj 231 247 del \$2;
#X obj 231 280 f \$4;
#X obj 231 303 * 0.01;
#X obj 231 336 * \$1;
#X obj 231 359 pack 0 \$3;
#X obj 396 295 pack 0 \$5;
#X obj 140 296 pack 0 \$2;
#X obj 271 446 line~;
#X obj 271 469 outlet~;
#X obj 256 122 inlet;
#X obj 306 122 inlet;
#X obj 356 122 inlet;
#X obj 406 122 inlet;
#X obj 456 122 inlet;
#X text 19 67 trigger;
#X text 256 96 peak;
#X text 303 96 attack;
#X text 356 96 decay;
#X text 403 96 sus %;
#X text 453 96 release;
#X connect 0 0 1 0;
#X connect 1 0 2 0;
#X connect 1 0 14 0;
#X connect 1 1 3 0;
#X connect 2 0 9 0;
#X connect 3 0 4 0;
#X connect 3 1 5 0;
#X connect 4 0 5 0;
#X connect 4 1 7 0;
#X connect 5 0 8 0;
#X connect 5 0 9 0;
#X connect 7 0 16 0;
#X connect 8 0 15 0;
#X connect 9 0 10 0;
#X connect 10 0 11 0;
#X connect 11 0 12 0;
#X connect 12 0 13 0;
#X connect 13 0 16 0;
#X connect 14 0 16 0;
#X connect 15 0 16 0;
#X connect 16 0 17 0;
#X connect 18 0 8 1;
#X connect 18 0 12 1;
#X connect 19 0 15 1;
#X connect 19 0 9 1;
#X connect 20 0 13 1;
#X connect 21 0 10 1;
#X connect 22 0 14 1;
